<svg width="36" height="36" viewBox="0 0 36 36" fill="none" xmlns="http://www.w3.org/2000/svg">
<rect x="0.5" y="0.5" width="35" height="35" rx="17.5" fill="white" stroke="#E8E8E8"/>
<path d="M17.0625 24.0833L11.5625 18.5833C11.4792 18.5 11.42 18.4097 11.385 18.3125C11.3506 18.2153 11.3334 18.1111 11.3334 18C11.3334 17.8889 11.3506 17.7847 11.385 17.6875C11.42 17.5903 11.4792 17.5 11.5625 17.4167L17.0625 11.9167C17.2153 11.7639 17.4062 11.6839 17.635 11.6767C17.8645 11.67 18.0625 11.75 18.2292 11.9167C18.3959 12.0694 18.4828 12.2603 18.49 12.4892C18.4967 12.7186 18.4167 12.9167 18.25 13.0833L14.1667 17.1667H23.4792C23.7153 17.1667 23.9134 17.2464 24.0734 17.4058C24.2328 17.5658 24.3125 17.7639 24.3125 18C24.3125 18.2361 24.2328 18.4339 24.0734 18.5933C23.9134 18.7533 23.7153 18.8333 23.4792 18.8333H14.1667L18.25 22.9167C18.4028 23.0694 18.4828 23.2639 18.49 23.5C18.4967 23.7361 18.4167 23.9305 18.25 24.0833C18.0973 24.25 17.9028 24.3333 17.6667 24.3333C17.4306 24.3333 17.2292 24.25 17.0625 24.0833Z" fill="#6C6C6C"/>
</svg>
