<svg width="14" height="14" viewBox="0 0 14 14" fill="none" xmlns="http://www.w3.org/2000/svg">
    <circle cx="7" cy="7" r="7" fill="#B863FB"/>
    <path d="M7 7.53806L4.65265 9.88541C4.57644 9.9618 4.48676 10 4.38362 10C4.28066 10 4.19099 9.9618 4.11459 9.88541C4.0382 9.80901 4 9.71934 4 9.61638C4 9.51324 4.0382 9.42356 4.11459 9.34735L6.46194 7L4.11459 4.65265C4.0382 4.57644 4 4.48676 4 4.38362C4 4.28066 4.0382 4.19099 4.11459 4.11459C4.19099 4.0382 4.28066 4 4.38362 4C4.48676 4 4.57644 4.0382 4.65265 4.11459L7 6.46194L9.34735 4.11459C9.42356 4.0382 9.51324 4 9.61638 4C9.71934 4 9.80901 4.0382 9.88541 4.11459C9.9618 4.19099 10 4.28066 10 4.38362C10 4.48676 9.9618 4.57644 9.88541 4.65265L7.53806 7L9.88541 9.34735C9.9618 9.42356 10 9.51324 10 9.61638C10 9.71934 9.9618 9.80901 9.88541 9.88541C9.80901 9.9618 9.71934 10 9.61638 10C9.51324 10 9.42356 9.9618 9.34735 9.88541L7 7.53806Z" fill="white"/>
</svg>
