<svg width="19" height="12" viewBox="0 0 19 12" fill="none" xmlns="http://www.w3.org/2000/svg">
<path d="M2.00002 1.99998L2.00002 4.99998L15.17 4.99998L12.29 2.11998C11.9 1.72998 11.9 1.09998 12.29 0.70998C12.68 0.31998 13.31 0.31998 13.7 0.70998L18.29 5.29998C18.68 5.68998 18.68 6.31998 18.29 6.70998L13.7 11.3C13.31 11.69 12.68 11.69 12.29 11.3C11.9 10.91 11.9 10.28 12.29 9.88998L15.17 6.99998L1.00002 6.99998C0.450019 6.99998 1.85374e-05 6.54998 1.85854e-05 5.99998L1.89351e-05 1.99998C1.89832e-05 1.44998 0.45002 0.999979 1.00002 0.999979C1.55002 0.999979 2.00002 1.44998 2.00002 1.99998Z" fill="#E8E8E8"/>
</svg>
