<svg width="12" height="12" viewBox="0 0 12 12" fill="none" xmlns="http://www.w3.org/2000/svg">
<path d="M5.73015 2.30394C7.7266 2.30394 9.30528 4.13691 8.87145 6.21107C8.59829 7.50942 7.50567 8.51836 6.19211 8.70327C5.5534 8.7917 4.93077 8.69925 4.35232 8.42189C4.24386 8.36963 4.12737 8.34552 4.00686 8.34552C3.93054 8.34552 3.85421 8.35758 3.78191 8.37767L2.85398 8.65101C2.70133 8.69523 2.55672 8.55454 2.60091 8.39777L2.8821 7.43707C2.93432 7.25618 2.91022 7.06726 2.82586 6.89441C2.62099 6.46029 2.51655 5.994 2.51655 5.51968C2.51655 3.747 3.95866 2.30394 5.73015 2.30394ZM5.73015 1.5C3.51277 1.5 1.71315 3.30082 1.71315 5.51968C1.71315 6.13871 1.85776 6.71755 2.1028 7.24412L1.51632 9.23788C1.42795 9.53936 1.71315 9.82476 2.01844 9.73231L4.01088 9.14543C4.6777 9.46299 5.44093 9.6077 6.25236 9.50318C8.08412 9.26602 9.55032 7.75462 9.73108 5.91763C9.96005 3.5219 8.0801 1.5 5.73015 1.5Z" fill="#8949BA"/>
</svg>
