<svg width="12" height="12" viewBox="0 0 12 12" fill="none" xmlns="http://www.w3.org/2000/svg">
<path d="M10.19 9.85833L9.20011 8.90855H2.94504C2.68259 8.90855 2.45938 8.82047 2.27541 8.6443C2.0918 8.46778 2 8.25361 2 8.00178V2.90677C2 2.65495 2.0918 2.44078 2.27541 2.26426C2.45938 2.08809 2.68259 2 2.94504 2H10.055C10.3174 2 10.5406 2.08809 10.7246 2.26426C10.9082 2.44078 11 2.65495 11 2.90677V9.54537C11 9.74676 10.9026 9.88528 10.7078 9.96093C10.5127 10.0366 10.3401 10.0024 10.19 9.85833ZM2.94504 2.90677V8.00178H9.59378L10.055 8.44429V2.90677H2.94504ZM2.94504 2.90677V8.44429V8.00178V2.90677Z" fill="#8949BA"/>
</svg>
