<svg width="16" height="16" viewBox="0 0 16 16" fill="none" xmlns="http://www.w3.org/2000/svg">
<path d="M6.99167 11.575C7.31667 11.9 7.84167 11.9 8.16667 11.575L11.1583 8.58333C11.4833 8.25833 11.4833 7.73333 11.1583 7.40833L8.16667 4.41667C7.84167 4.09167 7.31667 4.09167 6.99167 4.41667C6.66667 4.74167 6.66667 5.26667 6.99167 5.59167L8.55833 7.16667H1.33333C0.875 7.16667 0.5 7.54167 0.5 8C0.5 8.45833 0.875 8.83333 1.33333 8.83333H8.55833L6.99167 10.4C6.66667 10.725 6.675 11.2583 6.99167 11.575ZM13.8333 0.5H2.16667C1.24167 0.5 0.5 1.25 0.5 2.16667V4.66667C0.5 5.125 0.875 5.5 1.33333 5.5C1.79167 5.5 2.16667 5.125 2.16667 4.66667V3C2.16667 2.54167 2.54167 2.16667 3 2.16667H13C13.4583 2.16667 13.8333 2.54167 13.8333 3V13C13.8333 13.4583 13.4583 13.8333 13 13.8333H3C2.54167 13.8333 2.16667 13.4583 2.16667 13V11.3333C2.16667 10.875 1.79167 10.5 1.33333 10.5C0.875 10.5 0.5 10.875 0.5 11.3333V13.8333C0.5 14.75 1.25 15.5 2.16667 15.5H13.8333C14.75 15.5 15.5 14.75 15.5 13.8333V2.16667C15.5 1.25 14.75 0.5 13.8333 0.5Z" fill="#6C6C6C"/>
</svg>
