<svg width="25" height="12" viewBox="0 0 25 12" fill="none" xmlns="http://www.w3.org/2000/svg">
    <path fill-rule="evenodd" clip-rule="evenodd" d="M13.8 1H3.80005C3.45854 1 3.13703 1.08559 2.85579 1.2365L7.89205 5.19355C8.2121 5.39887 9.00791 5.6605 9.7227 5.18397C10.4819 4.67786 12.7801 2.82731 14.3437 1.56838L14.3437 1.56834L14.7513 1.24025C14.4684 1.08701 14.1444 1 13.8 1ZM1.80005 3C1.80005 2.60425 1.91499 2.23536 2.11331 1.92487L7.29114 5.99316L7.30647 6.00521L7.3227 6.01602C7.81288 6.34281 9.08336 6.81205 10.2774 6.01602C11.0795 5.48128 13.4457 3.57572 15.0042 2.32053L15.0045 2.32033L15.4898 1.92962C15.6863 2.23912 15.8 2.60627 15.8 3V4H16.8V3C16.8 1.34315 15.4569 0 13.8 0H3.80005C2.14319 0 0.800049 1.34315 0.800049 3V9C0.800049 10.6569 2.14319 12 3.80005 12H13.8C15.4569 12 16.8 10.6569 16.8 9H15.8C15.8 10.1046 14.9046 11 13.8 11H3.80005C2.69548 11 1.80005 10.1046 1.80005 9V3Z" fill="#6C6C6C"/>
    <path d="M22.7083 6.04158H17.5887L19.8254 3.80492C20.0041 3.62617 20.0041 3.33283 19.8254 3.15408C19.6466 2.97533 19.3579 2.97533 19.1791 3.15408L16.1587 6.1745C15.98 6.35325 15.98 6.642 16.1587 6.82075L19.1791 9.84117C19.3579 10.0199 19.6466 10.0199 19.8254 9.84117C20.0041 9.66242 20.0041 9.37366 19.8254 9.19491L17.5887 6.95825H22.7083C22.9604 6.95825 23.1666 6.752 23.1666 6.49992C23.1666 6.24783 22.9604 6.04158 22.7083 6.04158Z" fill="white"/>
</svg>
