<svg width="24" height="13" viewBox="0 0 24 13" fill="none" xmlns="http://www.w3.org/2000/svg">
<path d="M12 6.76562C13.63 6.76562 15.07 7.15562 16.24 7.66562C17.32 8.14562 18 9.22562 18 10.3956V11.0156C18 11.5656 17.55 12.0156 17 12.0156H7C6.45 12.0156 6 11.5656 6 11.0156V10.4056C6 9.22562 6.68 8.14563 7.76 7.67562C8.93 7.15562 10.37 6.76562 12 6.76562ZM4 7.01562C5.1 7.01562 6 6.11562 6 5.01562C6 3.91563 5.1 3.01562 4 3.01562C2.9 3.01562 2 3.91563 2 5.01562C2 6.11562 2.9 7.01562 4 7.01562ZM5.13 8.11563C4.76 8.05562 4.39 8.01562 4 8.01562C3.01 8.01562 2.07 8.22563 1.22 8.59562C0.48 8.91562 0 9.63562 0 10.4456V11.0156C0 11.5656 0.45 12.0156 1 12.0156H4.5V10.4056C4.5 9.57562 4.73 8.79563 5.13 8.11563ZM20 7.01562C21.1 7.01562 22 6.11562 22 5.01562C22 3.91563 21.1 3.01562 20 3.01562C18.9 3.01562 18 3.91563 18 5.01562C18 6.11562 18.9 7.01562 20 7.01562ZM24 10.4456C24 9.63562 23.52 8.91562 22.78 8.59562C21.93 8.22563 20.99 8.01562 20 8.01562C19.61 8.01562 19.24 8.05562 18.87 8.11563C19.27 8.79563 19.5 9.57562 19.5 10.4056V12.0156H23C23.55 12.0156 24 11.5656 24 11.0156V10.4456ZM12 0.015625C13.66 0.015625 15 1.35563 15 3.01562C15 4.67562 13.66 6.01562 12 6.01562C10.34 6.01562 9 4.67562 9 3.01562C9 1.35563 10.34 0.015625 12 0.015625Z" fill="#6C6C6C"/>
</svg>
