<svg width="12" height="12" viewBox="0 0 12 12" fill="none" xmlns="http://www.w3.org/2000/svg">
<path d="M3.6 8.4624H8.4126C8.529 8.4624 8.6124 8.4124 8.6628 8.3124C8.7124 8.2124 8.704 8.1166 8.6376 8.025L7.3374 6.2874C7.279 6.2126 7.204 6.1772 7.1124 6.1812C7.0208 6.1852 6.9458 6.2248 6.8874 6.3L5.6376 7.9752L4.7502 6.7872C4.6918 6.7124 4.6168 6.675 4.5252 6.675C4.4332 6.675 4.3582 6.7124 4.3002 6.7872L3.375 8.025C3.3082 8.1166 3.302 8.2124 3.3564 8.3124C3.4104 8.4124 3.4916 8.4624 3.6 8.4624ZM2.55 10.5C2.2584 10.5 2.0104 10.398 1.806 10.194C1.602 9.9896 1.5 9.7416 1.5 9.45V2.55C1.5 2.2584 1.602 2.0104 1.806 1.806C2.0104 1.602 2.2584 1.5 2.55 1.5H9.45C9.7416 1.5 9.9896 1.602 10.194 1.806C10.398 2.0104 10.5 2.2584 10.5 2.55V9.45C10.5 9.7416 10.398 9.9896 10.194 10.194C9.9896 10.398 9.7416 10.5 9.45 10.5H2.55ZM2.55 9.45H9.45V2.55H2.55V9.45ZM2.55 2.55V9.45V2.55Z" fill="#8949BA"/>
</svg>
