<svg width="20" height="20" viewBox="0 0 20 20" fill="none" xmlns="http://www.w3.org/2000/svg">
    <path d="M10.0001 14.5833C11.0417 14.5833 11.9273 14.2189 12.6567 13.49C13.3856 12.7606 13.7501 11.875 13.7501 10.8333C13.7501 9.79167 13.3856 8.90611 12.6567 8.17667C11.9273 7.44778 11.0417 7.08333 10.0001 7.08333C8.95841 7.08333 8.07286 7.44778 7.34341 8.17667C6.61453 8.90611 6.25008 9.79167 6.25008 10.8333C6.25008 11.875 6.61453 12.7606 7.34341 13.49C8.07286 14.2189 8.95841 14.5833 10.0001 14.5833ZM3.33341 17.5C2.87508 17.5 2.48286 17.3369 2.15675 17.0108C1.83008 16.6842 1.66675 16.2917 1.66675 15.8333V5.83333C1.66675 5.375 1.83008 4.98278 2.15675 4.65667C2.48286 4.33 2.87508 4.16667 3.33341 4.16667H5.95841L7.00008 3.04167C7.15286 2.86111 7.33675 2.72556 7.55175 2.635C7.7673 2.545 7.99314 2.5 8.22925 2.5H11.7709C12.007 2.5 12.2329 2.545 12.4484 2.635C12.6634 2.72556 12.8473 2.86111 13.0001 3.04167L14.0417 4.16667H16.6667C17.1251 4.16667 17.5176 4.33 17.8442 4.65667C18.1704 4.98278 18.3334 5.375 18.3334 5.83333V15.8333C18.3334 16.2917 18.1704 16.6842 17.8442 17.0108C17.5176 17.3369 17.1251 17.5 16.6667 17.5H3.33341Z" fill="#6C6C6C"/>
</svg>
