<svg width="14" height="15" viewBox="0 0 14 15" fill="none" xmlns="http://www.w3.org/2000/svg">
<path fill-rule="evenodd" clip-rule="evenodd" d="M13.9441 10.7897C13.9441 10.3328 13.6136 9.96335 13.1663 9.83696C11.9316 9.49668 11.0275 8.3689 11.0275 7.02724V2.16612H11.9997C12.5344 2.16612 12.9719 1.72862 12.9719 1.1939C12.9719 0.65918 12.5344 0.22168 11.9997 0.22168H2.27745C1.74273 0.22168 1.30523 0.65918 1.30523 1.1939C1.30523 1.72862 1.74273 2.16612 2.27745 2.16612H3.24967V7.02724C3.24967 8.3689 2.34551 9.49668 1.11079 9.83696C0.663564 9.96335 0.333008 10.3328 0.333008 10.7897V10.9161C0.333008 11.4508 0.770508 11.8883 1.30523 11.8883H6.1469V13.8328C6.1469 14.3675 6.60384 14.805 7.13856 14.805C7.67329 14.805 8.11079 14.3675 8.11079 13.8328L8.09134 11.8883H12.9719C13.5066 11.8883 13.9441 11.4508 13.9441 10.9161V10.7897Z" fill="#6C6C6C"/>
</svg>
