<svg width="40" height="40" viewBox="0 0 40 40" fill="none" xmlns="http://www.w3.org/2000/svg">
<rect width="40" height="40" rx="20" fill="#FF7D7D"/>
<circle cx="16" cy="12" r="1" fill="black"/>
<circle cx="23" cy="12" r="1" fill="black"/>
<path d="M11 5.90318C12.3333 7.1564 15.2 9.00491 16 6.37314C17 3.08342 14.5 4.02334 14.5 4.4933C14.5 4.96326 14.5 7.78263 16.5 7.78263C18.5 7.78263 22 4.4933 20 4.4933C18 4.4933 18.5 7.78263 20.5 7.78263C22.5 7.78263 25 5.43244 24 4.96287C23 4.4933 21 6.84271 24 7.78263C26.4 8.53456 28.3333 7.15627 29 6.37314" stroke="black" stroke-width="0.5"/>
<path d="M30.7689 18.7258C23.0517 16.5353 11.5472 16.5343 7.23296 18.135C4.21407 18.7043 2.97005 25.7434 12.0267 32.0057C19.272 37.0156 28.2534 31.2361 30.7691 29.3384C35.0832 26.0842 37.5989 20.6644 30.7689 18.7258Z" fill="#66281B"/>
</svg>
