<svg width="25" height="12" viewBox="0 0 25 12" fill="none" xmlns="http://www.w3.org/2000/svg">
    <path fill-rule="evenodd" clip-rule="evenodd" d="M13 1H3C2.6585 1 2.33698 1.08559 2.05574 1.2365L7.092 5.19355C7.41205 5.39887 8.20786 5.6605 8.92265 5.18397C9.68182 4.67786 11.9801 2.82731 13.5436 1.56838L13.5436 1.56834L13.9512 1.24025C13.6683 1.08701 13.3443 1 13 1ZM1 3C1 2.60425 1.11494 2.23536 1.31326 1.92487L6.49109 5.99316L6.50642 6.00521L6.52265 6.01602C7.01283 6.34281 8.28331 6.81205 9.47735 6.01602C10.2795 5.48128 12.6456 3.57572 14.2042 2.32053L14.2044 2.32033L14.6898 1.92962C14.8862 2.23912 15 2.60627 15 3V4H16V3C16 1.34315 14.6569 0 13 0H3C1.34315 0 0 1.34315 0 3V9C0 10.6569 1.34315 12 3 12H13C14.6569 12 16 10.6569 16 9H15C15 10.1046 14.1046 11 13 11H3C1.89543 11 1 10.1046 1 9V3Z" fill="#6C6C6C"/>
    <path d="M15.4916 6.95842L20.6112 6.95842L18.3746 9.19508C18.1958 9.37383 18.1958 9.66717 18.3746 9.84592C18.5533 10.0247 18.8421 10.0247 19.0208 9.84592L22.0412 6.8255C22.22 6.64675 22.22 6.358 22.0412 6.17925L19.0208 3.15883C18.8421 2.98008 18.5533 2.98008 18.3746 3.15883C18.1958 3.33758 18.1958 3.62634 18.3746 3.80508L20.6112 6.04175L15.4916 6.04175C15.2396 6.04175 15.0333 6.248 15.0333 6.50008C15.0333 6.75217 15.2396 6.95842 15.4916 6.95842Z" fill="#6C6C6C"/>
</svg>
