<svg xmlns="http://www.w3.org/2000/svg" width="12" height="12" fill="none"><g clip-path="url(#a)"><circle cx="5" cy="5.266" r="4.5" fill="#A558E0"/><path fill="#fff" d="M6.458 4.89a.632.632 0 0 0 .636-.646.632.632 0 0 0-.636-.646.64.64 0 0 0-.463.188.614.614 0 0 0-.193.458c0 .18.064.333.193.458a.64.64 0 0 0 .463.188Zm-2.896-.01a.632.632 0 0 0 .636-.646.632.632 0 0 0-.636-.646.64.64 0 0 0-.463.187.615.615 0 0 0-.193.459c0 .18.064.333.193.458a.64.64 0 0 0 .463.187ZM5 7.555a2.248 2.248 0 0 0 1.854-.947c.083-.125.095-.244.037-.355a.3.3 0 0 0-.287-.166c-.049 0-.1.016-.156.047a.473.473 0 0 0-.136.109A1.625 1.625 0 0 1 5 6.91c-.264 0-.509-.06-.734-.183a1.798 1.798 0 0 1-.579-.494.425.425 0 0 0-.13-.105.342.342 0 0 0-.161-.041.306.306 0 0 0-.281.161c-.063.108-.052.224.031.35.194.291.455.524.781.697.326.174.684.26 1.073.26Z"/></g><defs><clipPath id="a"><path fill="#fff" d="M0 0h10v10H0z"/></clipPath></defs></svg>