<svg width="12" height="12" viewBox="0 0 12 12" fill="none" xmlns="http://www.w3.org/2000/svg">
<path d="M7.94453 5.6111C8.37408 5.6111 8.7223 5.26287 8.7223 4.83332C8.7223 4.40376 8.37408 4.05554 7.94453 4.05554C7.51497 4.05554 7.16675 4.40376 7.16675 4.83332C7.16675 5.26287 7.51497 5.6111 7.94453 5.6111Z" fill="#8949BA"/>
<path d="M4.05561 5.6111C4.48516 5.6111 4.83339 5.26287 4.83339 4.83332C4.83339 4.40376 4.48516 4.05554 4.05561 4.05554C3.62605 4.05554 3.27783 4.40376 3.27783 4.83332C3.27783 5.26287 3.62605 5.6111 4.05561 5.6111Z" fill="#8949BA"/>
<path d="M5.99466 0.555542C2.98933 0.555542 0.555664 2.99465 0.555664 5.99999C0.555664 9.00532 2.98933 11.4444 5.99466 11.4444C9.00544 11.4444 11.4446 9.00532 11.4446 5.99999C11.4446 2.99465 9.00544 0.555542 5.99466 0.555542ZM6.00011 10.3555C3.59366 10.3555 1.64455 8.40643 1.64455 5.99999C1.64455 3.59354 3.59366 1.64443 6.00011 1.64443C8.40655 1.64443 10.3557 3.59354 10.3557 5.99999C10.3557 8.40643 8.40655 10.3555 6.00011 10.3555ZM8.40111 7.02899C8.21055 6.90921 7.95466 6.9691 7.84033 7.15965C7.43744 7.79665 6.75144 8.17776 6.00011 8.17776C5.24878 8.17776 4.56278 7.79665 4.15989 7.15421C4.04011 6.96365 3.78966 6.90376 3.59911 7.02354C3.40855 7.14332 3.34866 7.39376 3.46844 7.58432C4.02378 8.47176 4.96566 8.99443 6.00011 8.99443C7.03455 8.99443 7.97644 8.46632 8.53177 7.58976C8.65155 7.39921 8.59166 7.14876 8.40111 7.02899Z" fill="#8949BA"/>
</svg>
