<svg width="14" height="15" viewBox="0 0 14 15" fill="none" xmlns="http://www.w3.org/2000/svg">
<path fill-rule="evenodd" clip-rule="evenodd" d="M11.936 1.04361L3.6001 4.35915V5.74335V7.46856V8.85277L11.936 12.1683C12.0783 12.2127 12.3087 12.237 12.5177 12.1722C12.6902 12.1187 12.8772 11.9981 13 11.6893V10.9145V2.29744V1.52262C12.8772 1.2138 12.6902 1.09317 12.5177 1.03968C12.3087 0.974886 12.0783 0.999248 11.936 1.04361ZM14 2.29744V1.43465V1.35308L13.974 1.27573C13.7486 0.603347 13.3004 0.235389 12.8139 0.0845415C12.3572 -0.0570601 11.9016 0.00141359 11.6093 0.0982743L11.5954 0.102877L11.5818 0.108284L3.00421 3.51996H3.00262H3.00042H2.99821H2.996H2.99377H2.99154H2.98929H2.98704H2.98478H2.9825H2.98022H2.97793H2.97563H2.97333H2.97101H2.96868H2.96635H2.964H2.96165H2.95928H2.95691H2.95453H2.95214H2.94974H2.94734H2.94492H2.94249H2.94006H2.93762H2.93517H2.9327H2.93024H2.92776H2.92527H2.92278H2.92027H2.91776H2.91524H2.91271H2.91017H2.90763H2.90507H2.90251H2.89994H2.89736H2.89477H2.89217H2.88956H2.88695H2.88433H2.8817H2.87906H2.87641H2.87376H2.87109H2.86842H2.86574H2.86306H2.86036H2.85766H2.85495H2.85223H2.8495H2.84676H2.84402H2.84127H2.83851H2.83574H2.83296H2.83018H2.82739H2.82459H2.82178H2.81897H2.81615H2.81332H2.81048H2.80764H2.80478H2.80192H2.79906H2.79618H2.7933H2.79041H2.78751H2.7846H2.78169H2.77877H2.77584H2.77291H2.76997H2.76702H2.76406H2.7611H2.75812H2.75514H2.75216H2.74917H2.74617H2.74316H2.74014H2.73712H2.73409H2.73106H2.72801H2.72496H2.72191H2.71884H2.71577H2.7127H2.70961H2.70652H2.70342H2.70032H2.69721H2.69409H2.69096H2.68783H2.68469H2.68155H2.67839H2.67524H2.67207H2.6689H2.66572H2.66254H2.65934H2.65615H2.65294H2.64973H2.64651H2.64329H2.64006H2.63682H2.63358H2.63033H2.62708H2.62382H2.62055H2.61727H2.61399H2.61071H2.60741H2.60412H2.60081H2.5975H2.59418H2.59086H2.58753H2.5842H2.58086H2.57751H2.57416H2.5708H2.56744H2.56407H2.56069H2.55731H2.55392H2.55053H2.54713H2.54372H2.54031H2.5369H2.53348H2.53005H2.52662H2.52318H2.51973H2.51628H2.51283H2.50937H2.5059H2.50243H2.49896H2.49547H2.49199H2.48849H2.485H2.48149H2.47798H2.47447H2.47095H2.46743H2.4639H2.46036H2.45682H2.45328H2.44973H2.44617H2.44261H2.43905H2.43548H2.43191H2.42833H2.42474H2.42115H2.41756H2.41396H2.41035H2.40675H2.40313H2.39951H2.39589H2.39226H2.38863H2.38499H2.38135H2.37771H2.37406H2.3704H2.36674H2.36308H2.35941H2.35573H2.35206H2.34837H2.34469H2.341H2.3373H2.3336H2.3299H2.32619H2.32248H2.31876H2.31504H2.31131H2.30758H2.30385H2.30011H2.29637H2.29263H2.28888H2.28512H2.28136H2.2776H2.27384H2.27007H2.26629H2.26252H2.25873H2.25495H2.25116H2.24737H2.24357H2.23977H2.23597H2.23216H2.22835H2.22453H2.22071H2.21689H2.21307H2.20924H2.2054H2.20157H2.19773H2.19388H2.19004H2.18619H2.18233H2.17848H2.17462H2.17075H2.16688H2.16301H2.15914H2.15526H2.15138H2.1475H2.14361H2.13972H2.13583H2.13194H2.12804H2.12414H2.12023H2.11632H2.11241H2.1085H2.10458H2.10066H2.09674H2.09281H2.08889H2.08496H2.08102H2.07708H2.07315H2.0692H2.06526H2.06131H2.05736H2.05341H2.04945H2.0455H2.04153H2.03757H2.03361H2.02964H2.02567H2.02169H2.01772H2.01374H2.00976H2.00578H2.00179H1.99781H1.99382H1.98983H1.98583H1.98184H1.97784H1.97384H1.96984H1.96583H1.96182H1.95782H1.9538H1.94979H1.94578H1.94176H1.93774H1.93372H1.9297H1.92567H1.92165H1.91762H1.91359H1.90956H1.90552H1.90149H1.89745H1.89341H1.88937H1.88533H1.88128H1.87724H1.87319H1.86914H1.86509H1.86104H1.85699H1.85293H1.84888H1.84482H1.84076H1.8367H1.83264H1.82858H1.82451H1.82045H1.81638H1.81231H1.80824H1.80417H1.8001H1.79603H1.79196H1.78788H1.78381H1.77973H1.77565H1.77157H1.76749H1.76341H1.75933H1.75525H1.75116H1.74708H1.74299H1.73891H1.73482H1.73073H1.72664H1.72255H1.71846H1.71437H1.71028H1.70619H1.7021H1.698H1.69391H1.68982H1.68572H1.68163H1.67753H1.67344H1.66934H1.66524H1.66114H1.65705H1.65295H1.64885H1.64475H1.64065H1.63655H1.63246H1.62836H1.62426H1.62016H1.61606H1.61196H1.60786H1.60376H1.59966H1.59556H1.59146H1.58736H1.58326H1.57916H1.57506H1.57096H1.56686H1.56276H1.55866H1.55456H1.55046H1.54636H1.54227H1.53817H1.53407H1.52997H1.52588H1.52178H1.51768H1.51359H1.50949H1.5054H1.50131H1.49721H1.49312H1.48903H1.48494H1.48085H1.47676H1.47267H1.46858H1.46449H1.4604H1.45632H1.45223H1.44815H1.44406H1.43998H1.4359H1.43182H1.42774H1.42366H1.41958H1.4155H1.41143H1.40735H1.40328H1.3992H1.39513H1.39106H1.38699H1.38292H1.37886H1.37479H1.37073H1.36666C0.858229 3.51996 0.491542 3.74165 0.268352 4.04988C0.0635121 4.33278 0 4.65752 0 4.88173V5.74487V7.46704V8.33018C0 8.5544 0.0635121 8.87914 0.268352 9.16203C0.491542 9.47027 0.858229 9.69195 1.36666 9.69195H1.37073H1.37479H1.37886H1.38292H1.38699H1.39106H1.39513H1.3992H1.40328H1.40735H1.41143H1.4155H1.41958H1.42366H1.42774H1.43182H1.4359H1.43998H1.44406H1.44815H1.45223H1.45632H1.4604H1.46449H1.46858H1.47267H1.47676H1.48085H1.48494H1.48903H1.49312H1.49721H1.50131H1.5054H1.50949H1.51359H1.51768H1.52178H1.52588H1.52997H1.53407H1.53817H1.54227H1.54636H1.55046H1.55456H1.55866H1.56276H1.56686H1.57096H1.57506H1.57916H1.58326H1.58736H1.59146H1.59556H1.59966H1.60376H1.60786H1.61196H1.61606H1.62016H1.62426H1.62836H1.63246H1.63655H1.64065H1.64475H1.64885H1.65295H1.65705H1.66114H1.66524H1.66934H1.67344H1.67753H1.68163H1.68572H1.68982H1.69391H1.698H1.7021H1.70619H1.71028H1.71437H1.71846H1.72255H1.72664H1.73073H1.73482H1.73891H1.74299H1.74708H1.75116H1.75525H1.75933H1.76341H1.76749H1.77157H1.77565H1.77973H1.78381H1.78788H1.79196H1.79603H1.8001H1.80417H1.80824H1.81231H1.81638H1.82045H1.82451H1.82858H1.83264H1.8367H1.84076H1.84482H1.84888H1.85293H1.85699H1.86104H1.86509H1.86914H1.87319H1.87724H1.88128H1.88533H1.88937H1.89341H1.89745H1.90149H1.90552H1.90956H1.91359H1.91762H1.92165H1.92567H1.9297H1.93372H1.93774H1.94176H1.94578H1.94979H1.9538H1.95782H1.96182H1.96583H1.96984H1.97384H1.97784H1.98184H1.98583H1.98983H1.99382H1.99781H2.00179H2.00578H2.00976H2.01374H2.01772H2.02169H2.02567H2.02964H2.03361H2.03757H2.04153H2.0455H2.04945H2.05341H2.05736H2.06131H2.06526H2.0692H2.07315H2.07708H2.08102H2.08496H2.08889H2.09281H2.09674H2.10066H2.10458H2.1085H2.11241H2.11632H2.12023H2.12414H2.12804H2.13194H2.13583H2.13972H2.14361H2.1475H2.15138H2.15526H2.15914H2.16301H2.16688H2.17075H2.17462H2.17848H2.18233H2.18619H2.19004H2.19388H2.19773H2.20157H2.2054H2.20924H2.21307H2.21689H2.22071H2.22453H2.22835H2.23216H2.23597H2.23977H2.24357H2.24737H2.25116H2.25495H2.25873H2.26252H2.26629H2.27007H2.27384H2.2776H2.28136H2.28512H2.28888H2.29263H2.29637H2.30011H2.30385H2.30758H2.31131H2.31504H2.31876H2.32248H2.32619H2.3299H2.3336H2.3373H2.341H2.34469H2.34837H2.35206H2.35573H2.35941H2.36308H2.36674H2.3704H2.37406H2.37771H2.38135H2.38499H2.38863H2.39226H2.39589H2.39951H2.40313H2.40675H2.41035H2.41396H2.41756H2.42115H2.42474H2.42833H2.43191H2.43548H2.43905H2.44261H2.44617H2.44973H2.45328H2.45682H2.46036H2.4639H2.46743H2.47095H2.47447H2.47798H2.48149H2.485H2.48849H2.49199H2.49547H2.49896H2.50243H2.5059H2.50937H2.51283H2.51628H2.51973H2.52318H2.52662H2.53005H2.53348H2.5369H2.54031H2.54372H2.54713H2.55053H2.55392H2.55731H2.56069H2.56407H2.56744H2.5708H2.57416H2.57751H2.58086H2.5842H2.58753H2.59086H2.59418H2.5975H2.6001V12.6395C2.6001 12.8637 2.66361 13.1884 2.86845 13.4713C3.09164 13.7795 3.45833 14.0012 3.96676 14.0012H3.97082H3.97489H3.97895H3.98302H3.98709H3.99116H3.99523H3.9993H4.00337H4.00745H4.01152H4.0156H4.01968H4.02376H4.02783H4.03191H4.036H4.04008H4.04416H4.04824H4.05233H4.05642H4.0605H4.06459H4.06868H4.07276H4.07685H4.08094H4.08504H4.08913H4.09322H4.09731H4.1014H4.1055H4.10959H4.11369H4.11778H4.12188H4.12597H4.13007H4.13417H4.13827H4.14236H4.14646H4.15056H4.15466H4.15876H4.16286H4.16695H4.17105H4.17515H4.17925H4.18335H4.18745H4.19155H4.19565H4.19975H4.20385H4.20795H4.21205H4.21615H4.22025H4.22435H4.22845H4.23255H4.23665H4.24075H4.24485H4.24895H4.25305H4.25714H4.26124H4.26534H4.26944H4.27353H4.27763H4.28172H4.28582H4.28991H4.29401H4.2981H4.3022H4.30629H4.31038H4.31447H4.31856H4.32265H4.32674H4.33083H4.33492H4.339H4.34309H4.34718H4.35126H4.35534H4.35943H4.36351H4.36759H4.37167H4.37575H4.37983H4.3839H4.38798H4.39205H4.39613H4.4002H4.40427H4.40834H4.41241H4.41648H4.42055H4.42461H4.42868H4.43274H4.4368H4.44086H4.44492H4.44898H4.45303H4.45709H4.46114H4.46519H4.46924H4.47329H4.47734H4.48138H4.48543H4.48947H4.49351H4.49755H4.50158H4.50562H4.50965H4.51369H4.51772H4.52174H4.52577H4.52979H4.53382H4.53784H4.54186H4.54587H4.54989H4.5539H4.55791H4.56192H4.56593H4.56993H4.57394H4.57794H4.58193H4.58593H4.58992H4.59392H4.59791H4.60189H4.60588H4.60986H4.61384H4.61782H4.62179H4.62577H4.62974H4.6337H4.63767H4.64163H4.64559H4.64955H4.65351H4.65746H4.66141H4.66536H4.6693H4.67324H4.67718H4.68112H4.68505H4.68898H4.69291H4.69684H4.70076H4.70468H4.7086H4.71251H4.71642H4.72033H4.72423H4.72814H4.73203H4.73593H4.73982H4.74371H4.7476H4.75148H4.75536H4.75924H4.76311H4.76698H4.77085H4.77471H4.77857H4.78243H4.78628H4.79013H4.79398H4.79782H4.80166H4.8055H4.80933H4.81316H4.81699H4.82081H4.82463H4.82845H4.83226H4.83606H4.83987H4.84367H4.84747H4.85126H4.85505H4.85883H4.86261H4.86639H4.87016H4.87393H4.8777H4.88146H4.88522H4.88897H4.89272H4.89647H4.90021H4.90395H4.90768H4.91141H4.91514H4.91886H4.92257H4.92629H4.92999H4.9337H4.9374H4.94109H4.94478H4.94847H4.95215H4.95583H4.9595H4.96317H4.96684H4.9705H4.97415H4.9778H4.98145H4.98509H4.98873H4.99236H4.99599H4.99961H5.00323H5.00684H5.01045H5.01406H5.01766H5.02125H5.02484H5.02842H5.032H5.03558H5.03915H5.04271H5.04627H5.04983H5.05338H5.05692H5.06046H5.064H5.06752H5.07105H5.07457H5.07808H5.08159H5.08509H5.08859H5.09208H5.09557H5.09905H5.10253H5.106H5.10947H5.11293H5.11638H5.11983H5.12327H5.12671H5.13015H5.13357H5.13699H5.14041H5.14382H5.14723H5.15062H5.15402H5.15741H5.16079H5.16416H5.16753H5.1709H5.17426H5.17761H5.18095H5.1843H5.18763H5.19096H5.19428H5.1976H5.20091H5.20421H5.20751H5.2108H5.21409H5.21737H5.22065H5.22391H5.22717H5.23043H5.23368H5.23692H5.24016H5.24339H5.24661H5.24983H5.25304H5.25624H5.25944H5.26263H5.26582H5.269H5.27217H5.27533H5.27849H5.28164H5.28479H5.28793H5.29106H5.29419H5.2973H5.30042H5.30352H5.30662H5.30971H5.31279H5.31587H5.31894H5.32201H5.32506H5.32811H5.33116H5.33419H5.33722H5.34024H5.34326H5.34626H5.34926H5.35226H5.35524H5.35822H5.36119H5.36416H5.36711H5.37006H5.37301H5.37594H5.37887H5.38179H5.3847H5.38761H5.3905H5.3934H5.39628H5.39915H5.40202H5.40488H5.40773H5.41058H5.41342H5.41625H5.41907H5.42188H5.42469H5.42749H5.43028H5.43306H5.43584H5.4386H5.44136H5.44412H5.44686H5.4496H5.45232H5.45504H5.45776H5.46046H5.46315H5.46584H5.46852H5.47119H5.47386H5.47651H5.47916H5.4818H5.48443H5.48705H5.48966H5.49227H5.49486H5.49745H5.50003H5.50261H5.50517H5.50772H5.51027H5.51281H5.51534H5.51786H5.52037H5.52287H5.52537H5.52786H5.53033H5.5328H5.53526H5.53771H5.54016H5.54259H5.54502H5.54743H5.54984H5.55224H5.55463H5.55701H5.55938H5.56174H5.5641H5.56644H5.56878H5.57111H5.57342H5.57573H5.57803H5.58032H5.5826H5.58487H5.58714H5.58939H5.59163H5.59387H5.59609H5.59831H5.60052H5.60271H5.6049H5.60708H5.60925H5.61141H5.61356H5.6157H5.61783H5.61995H5.62206H5.62417H5.62626H5.62834H5.63041H5.63248H5.63453H5.63657H5.63861H5.64063H5.64265H5.64465H5.64665H5.64863H5.65061H5.65257H5.65453H5.65647H5.65841H5.66033H5.66225H5.66415H5.66605H5.66793H5.6698H5.67167H5.67352H5.67537H5.6772H5.67902H5.68083H5.68264H5.68443H5.68621H5.68798H5.68974H5.69149H5.69323H5.69496H5.69668H5.69839H5.70009C5.92397 14.0012 6.24912 13.9385 6.53282 13.7354C6.84216 13.514 7.06675 13.1483 7.06675 12.6395V12.6354V12.6314V12.6273V12.6232V12.6192V12.6151V12.611V12.6069V12.6028V12.5987V12.5946V12.5904V12.5863V12.5822V12.578V12.5738V12.5697V12.5655V12.5613V12.5571V12.553V12.5488V12.5446V12.5403V12.5361V12.5319V12.5277V12.5234V12.5192V12.5149V12.5107V12.5064V12.5021V12.4978V12.4935V12.4893V12.485V12.4806V12.4763V12.472V12.4677V12.4634V12.459V12.4547V12.4503V12.446V12.4416V12.4373V12.4329V12.4285V12.4241V12.4197V12.4153V12.4109V12.4065V12.4021V12.3977V12.3933V12.3888V12.3844V12.38V12.3755V12.3711V12.3666V12.3622V12.3577V12.3532V12.3488V12.3443V12.3398V12.3353V12.3308V12.3263V12.3218V12.3173V12.3128V12.3083V12.3037V12.2992V12.2947V12.2901V12.2856V12.281V12.2765V12.2719V12.2674V12.2628V12.2582V12.2537V12.2491V12.2445V12.2399V12.2353V12.2308V12.2262V12.2216V12.217V12.2123V12.2077V12.2031V12.1985V12.1939V12.1893V12.1846V12.18V12.1754V12.1707V12.1661V12.1614V12.1568V12.1521V12.1475V12.1428V12.1382V12.1335V12.1288V12.1241V12.1195V12.1148V12.1101V12.1054V12.1007V12.0961V12.0914V12.0867V12.082V12.0773V12.0726V12.0679V12.0632V12.0585V12.0538V12.049V12.0443V12.0396V12.0349V12.0302V12.0254V12.0207V12.016V12.0113V12.0065V12.0018V11.9971V11.9923V11.9876V11.9828V11.9781V11.9734V11.9686V11.9639V11.9591V11.9544V11.9496V11.9449V11.9401V11.9353V11.9306V11.9258V11.9211V11.9163V11.9116V11.9068V11.902V11.8973V11.8925V11.8877V11.883V11.8782V11.8734V11.8687V11.8639V11.8591V11.8544V11.8496V11.8448V11.84V11.8353V11.8305V11.8257V11.8209V11.8162V11.8114V11.8066V11.8019V11.7971V11.7923V11.7875V11.7828V11.778V11.7732V11.7684V11.7637V11.7589V11.7541V11.7493V11.7446V11.7398V11.735V11.7303V11.7255V11.7207V11.716V11.7112V11.7064V11.7017V11.6969V11.6921V11.6874V11.6826V11.6778V11.6731V11.6683V11.6636V11.6588V11.654V11.6493V11.6445V11.6398V11.635V11.6303V11.6255V11.6208V11.616V11.6113V11.6066V11.6018V11.5971V11.5924V11.5876V11.5829V11.5782V11.5734V11.5687V11.564V11.5592V11.5545V11.5498V11.5451V11.5404V11.5357V11.531V11.5263V11.5216V11.5168V11.5121V11.5075V11.5028V11.4981V11.4934V11.4887V11.484V11.4793V11.4746V11.47V11.4653V11.4606V11.456V11.4513V11.4466V11.442V11.4373V11.4327V11.428V11.4234V11.4187V11.4141V11.4095V11.4048V11.4002V11.3956V11.391V11.3864V11.3817V11.3771V11.3725V11.3679V11.3633V11.3587V11.3542V11.3496V11.345V11.3404V11.3358V11.3313V11.3267V11.3221V11.3176V11.313V11.3085V11.3078L11.5818 13.1036L11.5954 13.109L11.6093 13.1136C11.9016 13.2105 12.3572 13.269 12.8139 13.1274C13.3004 12.9765 13.7486 12.6086 13.974 11.9362L14 11.8588V11.7773V10.9145V2.29744ZM1 5.74487V7.46704V8.33018C1 8.39322 1.02315 8.49937 1.07831 8.57555C1.10227 8.60863 1.13062 8.63417 1.16696 8.65281C1.20295 8.67128 1.26426 8.69195 1.36666 8.69195H1.37073H1.37479H1.37886H1.38292H1.38699H1.39106H1.39513H1.3992H1.40328H1.40735H1.41143H1.4155H1.41958H1.42366H1.42774H1.43182H1.4359H1.43998H1.44406H1.44815H1.45223H1.45632H1.4604H1.46449H1.46858H1.47267H1.47676H1.48085H1.48494H1.48903H1.49312H1.49721H1.50131H1.5054H1.50949H1.51359H1.51768H1.52178H1.52588H1.52997H1.53407H1.53817H1.54227H1.54636H1.55046H1.55456H1.55866H1.56276H1.56686H1.57096H1.57506H1.57916H1.58326H1.58736H1.59146H1.59556H1.59966H1.60376H1.60786H1.61196H1.61606H1.62016H1.62426H1.62836H1.63246H1.63655H1.64065H1.64475H1.64885H1.65295H1.65705H1.66114H1.66524H1.66934H1.67344H1.67753H1.68163H1.68572H1.68982H1.69391H1.698H1.7021H1.70619H1.71028H1.71437H1.71846H1.72255H1.72664H1.73073H1.73482H1.73891H1.74299H1.74708H1.75116H1.75525H1.75933H1.76341H1.76749H1.77157H1.77565H1.77973H1.78381H1.78788H1.79196H1.79603H1.8001H1.80417H1.80824H1.81231H1.81638H1.82045H1.82451H1.82858H1.83264H1.8367H1.84076H1.84482H1.84888H1.85293H1.85699H1.86104H1.86509H1.86914H1.87319H1.87724H1.88128H1.88533H1.88937H1.89341H1.89745H1.90149H1.90552H1.90956H1.91359H1.91762H1.92165H1.92567H1.9297H1.93372H1.93774H1.94176H1.94578H1.94979H1.9538H1.95782H1.96182H1.96583H1.96984H1.97384H1.97784H1.98184H1.98583H1.98983H1.99382H1.99781H2.00179H2.00578H2.00976H2.01374H2.01772H2.02169H2.02567H2.02964H2.03361H2.03757H2.04153H2.0455H2.04945H2.05341H2.05736H2.06131H2.06526H2.0692H2.07315H2.07708H2.08102H2.08496H2.08889H2.09281H2.09674H2.10066H2.10458H2.1085H2.11241H2.11632H2.12023H2.12414H2.12804H2.13194H2.13583H2.13972H2.14361H2.1475H2.15138H2.15526H2.15914H2.16301H2.16688H2.17075H2.17462H2.17848H2.18233H2.18619H2.19004H2.19388H2.19773H2.20157H2.2054H2.20924H2.21307H2.21689H2.22071H2.22453H2.22835H2.23216H2.23597H2.23977H2.24357H2.24737H2.25116H2.25495H2.25873H2.26252H2.26629H2.27007H2.27384H2.2776H2.28136H2.28512H2.28888H2.29263H2.29637H2.30011H2.30385H2.30758H2.31131H2.31504H2.31876H2.32248H2.32619H2.3299H2.3336H2.3373H2.341H2.34469H2.34837H2.35206H2.35573H2.35941H2.36308H2.36674H2.3704H2.37406H2.37771H2.38135H2.38499H2.38863H2.39226H2.39589H2.39951H2.40313H2.40675H2.41035H2.41396H2.41756H2.42115H2.42474H2.42833H2.43191H2.43548H2.43905H2.44261H2.44617H2.44973H2.45328H2.45682H2.46036H2.4639H2.46743H2.47095H2.47447H2.47798H2.48149H2.485H2.48849H2.49199H2.49547H2.49896H2.50243H2.5059H2.50937H2.51283H2.51628H2.51973H2.52318H2.52662H2.53005H2.53348H2.5369H2.54031H2.54372H2.54713H2.55053H2.55392H2.55731H2.56069H2.56407H2.56744H2.5708H2.57416H2.57751H2.58086H2.5842H2.58753H2.59086H2.59418H2.5975H2.6001V7.46856V5.74335V4.51996H2.5975H2.59418H2.59086H2.58753H2.5842H2.58086H2.57751H2.57416H2.5708H2.56744H2.56407H2.56069H2.55731H2.55392H2.55053H2.54713H2.54372H2.54031H2.5369H2.53348H2.53005H2.52662H2.52318H2.51973H2.51628H2.51283H2.50937H2.5059H2.50243H2.49896H2.49547H2.49199H2.48849H2.485H2.48149H2.47798H2.47447H2.47095H2.46743H2.4639H2.46036H2.45682H2.45328H2.44973H2.44617H2.44261H2.43905H2.43548H2.43191H2.42833H2.42474H2.42115H2.41756H2.41396H2.41035H2.40675H2.40313H2.39951H2.39589H2.39226H2.38863H2.38499H2.38135H2.37771H2.37406H2.3704H2.36674H2.36308H2.35941H2.35573H2.35206H2.34837H2.34469H2.341H2.3373H2.3336H2.3299H2.32619H2.32248H2.31876H2.31504H2.31131H2.30758H2.30385H2.30011H2.29637H2.29263H2.28888H2.28512H2.28136H2.2776H2.27384H2.27007H2.26629H2.26252H2.25873H2.25495H2.25116H2.24737H2.24357H2.23977H2.23597H2.23216H2.22835H2.22453H2.22071H2.21689H2.21307H2.20924H2.2054H2.20157H2.19773H2.19388H2.19004H2.18619H2.18233H2.17848H2.17462H2.17075H2.16688H2.16301H2.15914H2.15526H2.15138H2.1475H2.14361H2.13972H2.13583H2.13194H2.12804H2.12414H2.12023H2.11632H2.11241H2.1085H2.10458H2.10066H2.09674H2.09281H2.08889H2.08496H2.08102H2.07708H2.07315H2.0692H2.06526H2.06131H2.05736H2.05341H2.04945H2.0455H2.04153H2.03757H2.03361H2.02964H2.02567H2.02169H2.01772H2.01374H2.00976H2.00578H2.00179H1.99781H1.99382H1.98983H1.98583H1.98184H1.97784H1.97384H1.96984H1.96583H1.96182H1.95782H1.9538H1.94979H1.94578H1.94176H1.93774H1.93372H1.9297H1.92567H1.92165H1.91762H1.91359H1.90956H1.90552H1.90149H1.89745H1.89341H1.88937H1.88533H1.88128H1.87724H1.87319H1.86914H1.86509H1.86104H1.85699H1.85293H1.84888H1.84482H1.84076H1.8367H1.83264H1.82858H1.82451H1.82045H1.81638H1.81231H1.80824H1.80417H1.8001H1.79603H1.79196H1.78788H1.78381H1.77973H1.77565H1.77157H1.76749H1.76341H1.75933H1.75525H1.75116H1.74708H1.74299H1.73891H1.73482H1.73073H1.72664H1.72255H1.71846H1.71437H1.71028H1.70619H1.7021H1.698H1.69391H1.68982H1.68572H1.68163H1.67753H1.67344H1.66934H1.66524H1.66114H1.65705H1.65295H1.64885H1.64475H1.64065H1.63655H1.63246H1.62836H1.62426H1.62016H1.61606H1.61196H1.60786H1.60376H1.59966H1.59556H1.59146H1.58736H1.58326H1.57916H1.57506H1.57096H1.56686H1.56276H1.55866H1.55456H1.55046H1.54636H1.54227H1.53817H1.53407H1.52997H1.52588H1.52178H1.51768H1.51359H1.50949H1.5054H1.50131H1.49721H1.49312H1.48903H1.48494H1.48085H1.47676H1.47267H1.46858H1.46449H1.4604H1.45632H1.45223H1.44815H1.44406H1.43998H1.4359H1.43182H1.42774H1.42366H1.41958H1.4155H1.41143H1.40735H1.40328H1.3992H1.39513H1.39106H1.38699H1.38292H1.37886H1.37479H1.37073H1.36666C1.26426 4.51996 1.20295 4.54064 1.16696 4.5591C1.13062 4.57774 1.10227 4.60328 1.07831 4.63637C1.02315 4.71254 1 4.81869 1 4.88173V5.74487ZM3.6001 9.92896L6.06675 10.9101V10.9104V10.9144V10.9184V10.9223V10.9263V10.9303V10.9343V10.9383V10.9423V10.9464V10.9504V10.9544V10.9585V10.9625V10.9666V10.9707V10.9747V10.9788V10.9829V10.987V10.9911V10.9952V10.9994V11.0035V11.0076V11.0118V11.0159V11.0201V11.0243V11.0284V11.0326V11.0368V11.041V11.0452V11.0494V11.0536V11.0578V11.0621V11.0663V11.0705V11.0748V11.0791V11.0833V11.0876V11.0919V11.0961V11.1004V11.1047V11.109V11.1133V11.1177V11.122V11.1263V11.1306V11.135V11.1393V11.1437V11.148V11.1524V11.1568V11.1611V11.1655V11.1699V11.1743V11.1787V11.1831V11.1875V11.1919V11.1963V11.2008V11.2052V11.2096V11.2141V11.2185V11.223V11.2274V11.2319V11.2363V11.2408V11.2453V11.2498V11.2543V11.2588V11.2633V11.2678V11.2723V11.2768V11.2813V11.2858V11.2903V11.2949V11.2994V11.3039V11.3085V11.313V11.3176V11.3221V11.3267V11.3313V11.3358V11.3404V11.345V11.3496V11.3542V11.3587V11.3633V11.3679V11.3725V11.3771V11.3817V11.3864V11.391V11.3956V11.4002V11.4048V11.4095V11.4141V11.4187V11.4234V11.428V11.4327V11.4373V11.442V11.4466V11.4513V11.456V11.4606V11.4653V11.47V11.4746V11.4793V11.484V11.4887V11.4934V11.4981V11.5028V11.5075V11.5121V11.5168V11.5216V11.5263V11.531V11.5357V11.5404V11.5451V11.5498V11.5545V11.5592V11.564V11.5687V11.5734V11.5782V11.5829V11.5876V11.5924V11.5971V11.6018V11.6066V11.6113V11.616V11.6208V11.6255V11.6303V11.635V11.6398V11.6445V11.6493V11.654V11.6588V11.6636V11.6683V11.6731V11.6778V11.6826V11.6874V11.6921V11.6969V11.7017V11.7064V11.7112V11.716V11.7207V11.7255V11.7303V11.735V11.7398V11.7446V11.7493V11.7541V11.7589V11.7637V11.7684V11.7732V11.778V11.7828V11.7875V11.7923V11.7971V11.8019V11.8066V11.8114V11.8162V11.8209V11.8257V11.8305V11.8353V11.84V11.8448V11.8496V11.8544V11.8591V11.8639V11.8687V11.8734V11.8782V11.883V11.8877V11.8925V11.8973V11.902V11.9068V11.9116V11.9163V11.9211V11.9258V11.9306V11.9353V11.9401V11.9449V11.9496V11.9544V11.9591V11.9639V11.9686V11.9734V11.9781V11.9828V11.9876V11.9923V11.9971V12.0018V12.0065V12.0113V12.016V12.0207V12.0254V12.0302V12.0349V12.0396V12.0443V12.049V12.0538V12.0585V12.0632V12.0679V12.0726V12.0773V12.082V12.0867V12.0914V12.0961V12.1007V12.1054V12.1101V12.1148V12.1195V12.1241V12.1288V12.1335V12.1382V12.1428V12.1475V12.1521V12.1568V12.1614V12.1661V12.1707V12.1754V12.18V12.1846V12.1893V12.1939V12.1985V12.2031V12.2077V12.2123V12.217V12.2216V12.2262V12.2308V12.2353V12.2399V12.2445V12.2491V12.2537V12.2582V12.2628V12.2674V12.2719V12.2765V12.281V12.2856V12.2901V12.2947V12.2992V12.3037V12.3083V12.3128V12.3173V12.3218V12.3263V12.3308V12.3353V12.3398V12.3443V12.3488V12.3532V12.3577V12.3622V12.3666V12.3711V12.3755V12.38V12.3844V12.3888V12.3933V12.3977V12.4021V12.4065V12.4109V12.4153V12.4197V12.4241V12.4285V12.4329V12.4373V12.4416V12.446V12.4503V12.4547V12.459V12.4634V12.4677V12.472V12.4763V12.4806V12.485V12.4893V12.4935V12.4978V12.5021V12.5064V12.5107V12.5149V12.5192V12.5234V12.5277V12.5319V12.5361V12.5403V12.5446V12.5488V12.553V12.5571V12.5613V12.5655V12.5697V12.5738V12.578V12.5822V12.5863V12.5904V12.5946V12.5987V12.6028V12.6069V12.611V12.6151V12.6192V12.6232V12.6273V12.6314V12.6354V12.6395C6.06675 12.74 6.04626 12.7998 6.02814 12.8347C6.00977 12.8701 5.98433 12.8982 5.95069 12.9223C5.87328 12.9777 5.76509 13.0012 5.70009 13.0012H5.69839H5.69668H5.69496H5.69323H5.69149H5.68974H5.68798H5.68621H5.68443H5.68264H5.68083H5.67902H5.6772H5.67537H5.67352H5.67167H5.6698H5.66793H5.66605H5.66415H5.66225H5.66033H5.65841H5.65647H5.65453H5.65257H5.65061H5.64863H5.64665H5.64465H5.64265H5.64063H5.63861H5.63657H5.63453H5.63248H5.63041H5.62834H5.62626H5.62417H5.62206H5.61995H5.61783H5.6157H5.61356H5.61141H5.60925H5.60708H5.6049H5.60271H5.60052H5.59831H5.59609H5.59387H5.59163H5.58939H5.58714H5.58487H5.5826H5.58032H5.57803H5.57573H5.57342H5.57111H5.56878H5.56644H5.5641H5.56174H5.55938H5.55701H5.55463H5.55224H5.54984H5.54743H5.54502H5.54259H5.54016H5.53771H5.53526H5.5328H5.53033H5.52786H5.52537H5.52287H5.52037H5.51786H5.51534H5.51281H5.51027H5.50772H5.50517H5.50261H5.50003H5.49745H5.49486H5.49227H5.48966H5.48705H5.48443H5.4818H5.47916H5.47651H5.47386H5.47119H5.46852H5.46584H5.46315H5.46046H5.45776H5.45504H5.45232H5.4496H5.44686H5.44412H5.44136H5.4386H5.43584H5.43306H5.43028H5.42749H5.42469H5.42188H5.41907H5.41625H5.41342H5.41058H5.40773H5.40488H5.40202H5.39915H5.39628H5.3934H5.3905H5.38761H5.3847H5.38179H5.37887H5.37594H5.37301H5.37006H5.36711H5.36416H5.36119H5.35822H5.35524H5.35226H5.34926H5.34626H5.34326H5.34024H5.33722H5.33419H5.33116H5.32811H5.32506H5.32201H5.31894H5.31587H5.31279H5.30971H5.30662H5.30352H5.30042H5.2973H5.29419H5.29106H5.28793H5.28479H5.28164H5.27849H5.27533H5.27217H5.269H5.26582H5.26263H5.25944H5.25624H5.25304H5.24983H5.24661H5.24339H5.24016H5.23692H5.23368H5.23043H5.22717H5.22391H5.22065H5.21737H5.21409H5.2108H5.20751H5.20421H5.20091H5.1976H5.19428H5.19096H5.18763H5.1843H5.18095H5.17761H5.17426H5.1709H5.16753H5.16416H5.16079H5.15741H5.15402H5.15062H5.14723H5.14382H5.14041H5.13699H5.13357H5.13015H5.12671H5.12327H5.11983H5.11638H5.11293H5.10947H5.106H5.10253H5.09905H5.09557H5.09208H5.08859H5.08509H5.08159H5.07808H5.07457H5.07105H5.06752H5.064H5.06046H5.05692H5.05338H5.04983H5.04627H5.04271H5.03915H5.03558H5.032H5.02842H5.02484H5.02125H5.01766H5.01406H5.01045H5.00684H5.00323H4.99961H4.99599H4.99236H4.98873H4.98509H4.98145H4.9778H4.97415H4.9705H4.96684H4.96317H4.9595H4.95583H4.95215H4.94847H4.94478H4.94109H4.9374H4.9337H4.92999H4.92629H4.92257H4.91886H4.91514H4.91141H4.90768H4.90395H4.90021H4.89647H4.89272H4.88897H4.88522H4.88146H4.8777H4.87393H4.87016H4.86639H4.86261H4.85883H4.85505H4.85126H4.84747H4.84367H4.83987H4.83606H4.83226H4.82845H4.82463H4.82081H4.81699H4.81316H4.80933H4.8055H4.80166H4.79782H4.79398H4.79013H4.78628H4.78243H4.77857H4.77471H4.77085H4.76698H4.76311H4.75924H4.75536H4.75148H4.7476H4.74371H4.73982H4.73593H4.73203H4.72814H4.72423H4.72033H4.71642H4.71251H4.7086H4.70468H4.70076H4.69684H4.69291H4.68898H4.68505H4.68112H4.67718H4.67324H4.6693H4.66536H4.66141H4.65746H4.65351H4.64955H4.64559H4.64163H4.63767H4.6337H4.62974H4.62577H4.62179H4.61782H4.61384H4.60986H4.60588H4.60189H4.59791H4.59392H4.58992H4.58593H4.58193H4.57794H4.57394H4.56993H4.56593H4.56192H4.55791H4.5539H4.54989H4.54587H4.54186H4.53784H4.53382H4.52979H4.52577H4.52174H4.51772H4.51369H4.50965H4.50562H4.50158H4.49755H4.49351H4.48947H4.48543H4.48138H4.47734H4.47329H4.46924H4.46519H4.46114H4.45709H4.45303H4.44898H4.44492H4.44086H4.4368H4.43274H4.42868H4.42461H4.42055H4.41648H4.41241H4.40834H4.40427H4.4002H4.39613H4.39205H4.38798H4.3839H4.37983H4.37575H4.37167H4.36759H4.36351H4.35943H4.35534H4.35126H4.34718H4.34309H4.339H4.33492H4.33083H4.32674H4.32265H4.31856H4.31447H4.31038H4.30629H4.3022H4.2981H4.29401H4.28991H4.28582H4.28172H4.27763H4.27353H4.26944H4.26534H4.26124H4.25714H4.25305H4.24895H4.24485H4.24075H4.23665H4.23255H4.22845H4.22435H4.22025H4.21615H4.21205H4.20795H4.20385H4.19975H4.19565H4.19155H4.18745H4.18335H4.17925H4.17515H4.17105H4.16695H4.16286H4.15876H4.15466H4.15056H4.14646H4.14236H4.13827H4.13417H4.13007H4.12597H4.12188H4.11778H4.11369H4.10959H4.1055H4.1014H4.09731H4.09322H4.08913H4.08504H4.08094H4.07685H4.07276H4.06868H4.06459H4.0605H4.05642H4.05233H4.04824H4.04416H4.04008H4.036H4.03191H4.02783H4.02376H4.01968H4.0156H4.01152H4.00745H4.00337H3.9993H3.99523H3.99116H3.98709H3.98302H3.97895H3.97489H3.97082H3.96676C3.86436 13.0012 3.80305 12.9806 3.76705 12.9621C3.73072 12.9435 3.70237 12.9179 3.67841 12.8848C3.62325 12.8086 3.6001 12.7025 3.6001 12.6395V9.92896Z" fill="#6C6C6C"/>
</svg>
