<svg width="12" height="12" viewBox="0 0 12 12" fill="none" xmlns="http://www.w3.org/2000/svg">
<path d="M11.2132 4.19996L7.91435 3.92052L6.62615 0.959738C6.39441 0.42081 5.60376 0.42081 5.37202 0.959738L4.08382 3.92717L0.791737 4.19996C0.191938 4.24654 -0.0534346 4.97841 0.403231 5.36431L2.90467 7.48011L2.15492 10.6205C2.0186 11.1927 2.65248 11.6452 3.17049 11.3391L5.99908 9.67574L8.82768 11.3458C9.34569 11.6518 9.97957 11.1994 9.84325 10.6272L9.0935 7.48011L11.5949 5.36431C12.0516 4.97841 11.813 4.24654 11.2132 4.19996ZM5.99908 8.43155L3.43631 9.94188L4.1179 7.09421L1.85502 5.17802L4.84038 4.92519L5.99908 2.24385L7.1646 4.93184L10.15 5.18467L7.88709 7.10086L8.56868 9.94853L5.99908 8.43155Z" fill="#8949BA"/>
</svg>
