<svg width="36" height="36" viewBox="0 0 36 36" fill="none" xmlns="http://www.w3.org/2000/svg">
<rect x="0.5" y="0.5" width="35" height="35" rx="17.5" fill="white" stroke="#E8E8E8"/>
<path d="M18 24C17.5833 24 17.2293 23.854 16.938 23.562C16.646 23.2707 16.5 22.9167 16.5 22.5C16.5 22.0833 16.646 21.7293 16.938 21.438C17.2293 21.146 17.5833 21 18 21C18.4167 21 18.7707 21.146 19.062 21.438C19.354 21.7293 19.5 22.0833 19.5 22.5C19.5 22.9167 19.354 23.2707 19.062 23.562C18.7707 23.854 18.4167 24 18 24ZM18 19.5C17.5833 19.5 17.2293 19.354 16.938 19.062C16.646 18.7707 16.5 18.4167 16.5 18C16.5 17.5833 16.646 17.2293 16.938 16.938C17.2293 16.646 17.5833 16.5 18 16.5C18.4167 16.5 18.7707 16.646 19.062 16.938C19.354 17.2293 19.5 17.5833 19.5 18C19.5 18.4167 19.354 18.7707 19.062 19.062C18.7707 19.354 18.4167 19.5 18 19.5ZM18 15C17.5833 15 17.2293 14.854 16.938 14.562C16.646 14.2707 16.5 13.9167 16.5 13.5C16.5 13.0833 16.646 12.7293 16.938 12.438C17.2293 12.146 17.5833 12 18 12C18.4167 12 18.7707 12.146 19.062 12.438C19.354 12.7293 19.5 13.0833 19.5 13.5C19.5 13.9167 19.354 14.2707 19.062 14.562C18.7707 14.854 18.4167 15 18 15Z" fill="#6C6C6C"/>
</svg>
