<svg width="13" height="12" viewBox="0 0 13 12" fill="none" xmlns="http://www.w3.org/2000/svg">
<path fill-rule="evenodd" clip-rule="evenodd" d="M6.5 5.99469C8.15685 5.99469 9.5 4.65273 9.5 2.99734C9.5 1.34196 8.15685 0 6.5 0C4.84315 0 3.5 1.34196 3.5 2.99734C3.5 4.65273 4.84315 5.99469 6.5 5.99469ZM6.48973 6.76367C9.41759 6.83548 11.1642 7.62436 11.6716 8.00982C12.7576 8.71461 13.0095 9.83663 12.9997 10.3095V11.1892C12.7795 11.821 12.2817 11.9889 12.0603 11.9939H6.51558V12.0001H0.940448C0.718895 11.9952 0.220685 11.8271 0.000270301 11.1948V10.3144C-0.00951054 9.84109 0.242642 8.71815 1.3295 8.01279C1.83576 7.62815 3.57505 6.84214 6.48973 6.76628V6.76367Z" fill="white"/>
</svg>
