<svg width="276" height="310" viewBox="0 0 276 310" fill="none" xmlns="http://www.w3.org/2000/svg">
<g filter="url(#filter0_dd_1697_1452)">
<rect x="82.1156" y="40.4248" width="40" height="41" rx="20" transform="rotate(170.391 82.1156 40.4248)" fill="#FF7D7D"/>
<path d="M47.9946 27.8866C56.2825 28.6179 68.1143 26.6157 72.2945 24.3483C75.308 23.2835 75.4586 16.3993 65.1402 12.0444C56.8854 8.56048 48.5755 15.5987 46.2926 17.8342C42.3776 21.6678 40.6595 27.2394 47.9946 27.8866Z" fill="#66281B"/>
<ellipse cx="64.287" cy="30.9681" rx="1" ry="1.025" transform="rotate(170.391 64.287 30.9681)" fill="black"/>
<ellipse cx="57.3852" cy="32.1365" rx="1" ry="1.025" transform="rotate(170.391 57.3852 32.1365)" fill="black"/>
<path d="M70.2391 36.1722C68.6964 35.0472 65.5334 33.5382 65.2237 36.5015C64.8366 40.2056 67.1304 38.7776 67.0448 38.2723C66.9593 37.767 66.4461 34.7356 64.4742 35.0694C62.5022 35.4033 59.6501 39.5242 61.622 39.1904C63.594 38.8565 62.5022 35.4033 60.5303 35.7371C58.5583 36.0709 56.5212 39.0152 57.5927 39.3532C58.6641 39.6912 60.2084 36.8312 57.0794 36.3213C54.5762 35.9134 52.9209 37.7181 52.4061 38.6714" stroke="black" stroke-width="0.5"/>
</g>
<g filter="url(#filter1_dd_1697_1452)">
<path d="M30.5 294.023C29.7 291.462 33.5 288.687 35.5 287.62L62.5 285.486C67 286.198 73.3 289.541 62.5 297.224C49 306.829 31.5 297.224 30.5 294.023Z" fill="#F5F5F5"/>
</g>
<g filter="url(#filter2_dd_1697_1452)">
<ellipse cx="184.5" cy="292.986" rx="17.5" ry="9" fill="#F5F5F5"/>
</g>
<g filter="url(#filter3_dd_1697_1452)">
<path d="M69 282.911C77.8 282.911 101.333 283.968 116 283.968L144 282.911C150.167 285.905 158.3 291.974 145.5 298.315C132.7 304.657 114.667 299.645 107.5 295.593C60.5 314.169 50 282.911 69 282.911Z" fill="#F5F5F5"/>
</g>
<g filter="url(#filter4_dd_1697_1452)">
<rect x="4" y="176.411" width="40" height="41" rx="20" fill="#9FA9FF"/>
<path d="M35.5494 194.468C27.4999 192.364 15.4998 192.363 10.9998 193.901C7.85088 194.448 6.55328 201.21 16 207.226C23.5574 212.039 32.9255 206.487 35.5496 204.664C40.0495 201.538 42.6736 196.331 35.5494 194.468Z" fill="#30377A"/>
<ellipse cx="20" cy="188.711" rx="1" ry="1.025" fill="black"/>
<ellipse cx="27" cy="188.711" rx="1" ry="1.025" fill="black"/>
<path d="M15.5 184.611C16.6667 185.294 19.5 186.046 21.5 183.586" stroke="black" stroke-width="0.5"/>
</g>
<g filter="url(#filter5_dd_1697_1452)">
<rect x="31" y="252.986" width="40" height="41" rx="20" fill="#CE91FF"/>
<path d="M57 272.461C48.9504 270.357 46.4999 267.848 41.9999 269.386C38.851 269.933 33.5533 277.786 43 283.802C50.5573 288.615 60.475 283.696 62.5496 281.24C66.4999 276.561 64.1242 274.324 57 272.461Z" fill="#5A307A"/>
<ellipse cx="47" cy="265.286" rx="1" ry="1.025" fill="black"/>
<ellipse cx="54" cy="265.286" rx="1" ry="1.025" fill="black"/>
<path d="M42.5 261.186C43.6667 261.869 46.5 262.621 48.5 260.161" stroke="black" stroke-width="0.5"/>
</g>
<g filter="url(#filter6_dd_1697_1452)">
<rect x="59.2391" y="278.827" width="40" height="41" rx="20" transform="rotate(-56.0393 59.2391 278.827)" fill="#9FA9FF"/>
<path d="M91.841 262.746C85.5989 268.247 78.8946 278.2 77.6563 282.791C76.3509 285.709 81.2349 290.563 91.502 286.088C99.7157 282.508 100.344 271.637 100.297 268.442C100.218 262.963 97.3655 257.878 91.841 262.746Z" fill="#30377A"/>
<ellipse cx="78.379" cy="272.427" rx="1" ry="1.025" transform="rotate(-56.0393 78.379 272.427)" fill="black"/>
<ellipse cx="82.2894" cy="266.621" rx="1" ry="1.025" transform="rotate(-56.0393 82.2894 266.621)" fill="black"/>
<path d="M72.4646 273.869C73.6831 273.283 75.8893 271.353 74.9662 268.32" stroke="black" stroke-width="0.5"/>
</g>
<g filter="url(#filter7_dd_1697_1452)">
<rect x="236.89" y="203.986" width="40" height="41" rx="20" transform="rotate(15.7985 236.89 203.986)" fill="#FF7D7D"/>
<path d="M262.331 229.951C255.159 225.735 243.612 222.467 238.864 222.722C235.685 222.391 232.595 228.544 240.047 236.905C246.009 243.594 256.535 240.802 259.556 239.762C264.737 237.979 268.679 233.683 262.331 229.951Z" fill="#66281B"/>
<ellipse cx="248.937" cy="220.177" rx="1" ry="1.025" transform="rotate(15.7985 248.937 220.177)" fill="black"/>
<ellipse cx="255.673" cy="222.083" rx="1" ry="1.025" transform="rotate(15.7985 255.673 222.083)" fill="black"/>
<path d="M245.793 212.923C246.704 214.601 248.914 217.321 250.465 214.777C252.404 211.598 249.719 211.903 249.58 212.397C249.44 212.89 248.603 215.848 250.528 216.393C252.452 216.937 256.796 214.438 254.872 213.894C252.947 213.349 252.452 216.937 254.376 217.482C256.301 218.026 259.404 216.241 258.581 215.476C257.759 214.711 255.137 216.631 257.744 218.435C259.83 219.877 262.1 218.957 262.974 218.317" stroke="black" stroke-width="0.5"/>
</g>
<g filter="url(#filter8_dd_1697_1452)">
<rect x="132.58" y="245.242" width="40" height="41" rx="20" transform="rotate(54.9567 132.58 245.242)" fill="#FF7D7D"/>
<ellipse cx="131.697" cy="265.404" rx="1" ry="1.025" transform="rotate(54.9567 131.697 265.404)" fill="black"/>
<ellipse cx="135.716" cy="271.135" rx="1" ry="1.025" transform="rotate(54.9567 135.716 271.135)" fill="black"/>
<path d="M133.84 257.794C133.487 259.67 133.483 263.175 136.292 262.182C139.803 260.94 137.528 259.482 137.109 259.776C136.689 260.071 134.172 261.836 135.32 263.474C136.469 265.111 141.415 265.917 140.267 264.279C139.118 262.642 136.469 265.111 137.617 266.748C138.765 268.386 142.299 268.961 142.144 267.848C141.989 266.736 138.743 266.569 139.627 269.614C140.333 272.05 142.674 272.77 143.756 272.825" stroke="black" stroke-width="0.5"/>
</g>
<g filter="url(#filter9_dd_1697_1452)">
<rect x="90.0623" y="215.512" width="40" height="41" rx="20" transform="rotate(8.57081 90.0623 215.512)" fill="#CEEC8F"/>
<path d="M118.568 238.07C110.922 234.789 99.0562 233 94.3772 233.85C91.182 233.921 88.8911 240.415 97.3357 247.772C104.091 253.657 114.182 249.563 117.049 248.151C121.964 245.731 125.335 240.973 118.568 238.07Z" fill="#3E5737"/>
<ellipse cx="104.05" cy="230.059" rx="1" ry="1.025" transform="rotate(8.57081 104.05 230.059)" fill="black"/>
<ellipse cx="110.972" cy="231.102" rx="1" ry="1.025" transform="rotate(8.57081 110.972 231.102)" fill="black"/>
<path d="M100.019 223.258C101.134 224.808 103.668 227.228 104.887 224.51C106.41 221.111 103.786 221.752 103.709 222.259C103.633 222.766 103.175 225.806 105.152 226.104C107.13 226.402 111.125 223.377 109.148 223.079C107.17 222.78 107.13 226.402 109.108 226.7C111.085 226.998 113.939 224.836 113.027 224.181C112.114 223.526 109.755 225.761 112.568 227.222C114.819 228.39 116.955 227.192 117.742 226.447" stroke="black" stroke-width="0.5"/>
</g>
<g filter="url(#filter10_dd_1697_1452)">
<rect x="136" y="136.411" width="40" height="41" rx="20" fill="#CEEC8F"/>
<ellipse cx="152" cy="148.711" rx="1" ry="1.025" fill="black"/>
<ellipse cx="159" cy="148.711" rx="1" ry="1.025" fill="black"/>
<path d="M157.351 143.187C158.678 142.967 161.588 143.283 162.618 146.306" stroke="black" stroke-width="0.5"/>
<ellipse cx="155.5" cy="158.448" rx="4.5" ry="4.6125" fill="#3E5737"/>
</g>
<g filter="url(#filter11_dd_1697_1452)">
<rect x="74.5754" y="91.324" width="40" height="41" rx="20" transform="rotate(-24.1073 74.5754 91.324)" fill="#CE91FF"/>
<ellipse cx="93.7097" cy="97.3602" rx="1" ry="1.025" transform="rotate(-24.1073 93.7097 97.3602)" fill="black"/>
<ellipse cx="101.925" cy="93.6841" rx="1" ry="1.025" transform="rotate(-24.1073 101.925 93.6841)" fill="black"/>
<path d="M91.1738 94.1412C93.3288 95.2846 97.4692 92.5233 97.406 89.9688C97.3271 86.7757 94.7338 87.0137 95.0467 88.7185C95.2164 89.6431 97.282 92.7914 99.5624 91.771C101.437 90.9323 101.546 89.4999 101.499 89.0597" stroke="black" stroke-width="0.5"/>
<path d="M92.8005 111.242C94.8273 104.346 101.521 92.2925 112.082 99.2453C122.643 106.198 103.628 110.14 92.8005 111.242Z" fill="#5A307A"/>
</g>
<g filter="url(#filter12_dd_1697_1452)">
<ellipse cx="125.5" cy="272.986" rx="4.5" ry="5" fill="#66281B"/>
</g>
<g filter="url(#filter13_dd_1697_1452)">
<rect width="40.1273" height="40.6316" rx="20" transform="matrix(0.909888 -0.414855 0.402097 0.915597 158 262.633)" fill="#CE91FF"/>
<ellipse rx="1.00318" ry="1.01579" transform="matrix(0.909888 -0.414855 0.402097 0.915597 177.002 268.481)" fill="black"/>
<ellipse rx="1.00318" ry="1.01579" transform="matrix(0.909888 -0.414855 0.402097 0.915597 185.217 264.736)" fill="black"/>
<path d="M173.684 264.796C175.82 265.917 179.969 263.123 179.929 260.573C179.879 257.387 177.294 257.648 177.59 259.347C177.751 260.269 179.78 263.392 182.06 262.352C183.934 261.498 184.056 260.067 184.013 259.628" stroke="black" stroke-width="0.5"/>
<path d="M186.936 275.945C186.855 277.501 185.134 278.393 183.852 277.544L179.308 274.533C178.036 273.691 178.15 271.764 179.513 271.057L184.345 268.553C185.708 267.846 187.303 268.887 187.223 270.43L186.936 275.945Z" fill="#5A307A"/>
</g>
<defs>
<filter id="filter0_dd_1697_1452" x="34.8877" y="3.05469" width="48.1733" height="48.9924" filterUnits="userSpaceOnUse" color-interpolation-filters="sRGB">
<feFlood flood-opacity="0" result="BackgroundImageFix"/>
<feColorMatrix in="SourceAlpha" type="matrix" values="0 0 0 0 0 0 0 0 0 0 0 0 0 0 0 0 0 0 127 0" result="hardAlpha"/>
<feOffset dy="4"/>
<feGaussianBlur stdDeviation="2"/>
<feComposite in2="hardAlpha" operator="out"/>
<feColorMatrix type="matrix" values="0 0 0 0 0 0 0 0 0 0 0 0 0 0 0 0 0 0 0.25 0"/>
<feBlend mode="normal" in2="BackgroundImageFix" result="effect1_dropShadow_1697_1452"/>
<feColorMatrix in="SourceAlpha" type="matrix" values="0 0 0 0 0 0 0 0 0 0 0 0 0 0 0 0 0 0 127 0" result="hardAlpha"/>
<feOffset dy="4"/>
<feGaussianBlur stdDeviation="2"/>
<feComposite in2="hardAlpha" operator="out"/>
<feColorMatrix type="matrix" values="0 0 0 0 0 0 0 0 0 0 0 0 0 0 0 0 0 0 0.25 0"/>
<feBlend mode="normal" in2="effect1_dropShadow_1697_1452" result="effect2_dropShadow_1697_1452"/>
<feBlend mode="normal" in="SourceGraphic" in2="effect2_dropShadow_1697_1452" result="shape"/>
</filter>
<filter id="filter1_dd_1697_1452" x="26.391" y="285.486" width="46.0723" height="23.8972" filterUnits="userSpaceOnUse" color-interpolation-filters="sRGB">
<feFlood flood-opacity="0" result="BackgroundImageFix"/>
<feColorMatrix in="SourceAlpha" type="matrix" values="0 0 0 0 0 0 0 0 0 0 0 0 0 0 0 0 0 0 127 0" result="hardAlpha"/>
<feOffset dy="4"/>
<feGaussianBlur stdDeviation="2"/>
<feComposite in2="hardAlpha" operator="out"/>
<feColorMatrix type="matrix" values="0 0 0 0 0 0 0 0 0 0 0 0 0 0 0 0 0 0 0.25 0"/>
<feBlend mode="normal" in2="BackgroundImageFix" result="effect1_dropShadow_1697_1452"/>
<feColorMatrix in="SourceAlpha" type="matrix" values="0 0 0 0 0 0 0 0 0 0 0 0 0 0 0 0 0 0 127 0" result="hardAlpha"/>
<feOffset dy="4"/>
<feGaussianBlur stdDeviation="2"/>
<feComposite in2="hardAlpha" operator="out"/>
<feColorMatrix type="matrix" values="0 0 0 0 0 0 0 0 0 0 0 0 0 0 0 0 0 0 0.25 0"/>
<feBlend mode="normal" in2="effect1_dropShadow_1697_1452" result="effect2_dropShadow_1697_1452"/>
<feBlend mode="normal" in="SourceGraphic" in2="effect2_dropShadow_1697_1452" result="shape"/>
</filter>
<filter id="filter2_dd_1697_1452" x="163" y="283.986" width="43" height="26" filterUnits="userSpaceOnUse" color-interpolation-filters="sRGB">
<feFlood flood-opacity="0" result="BackgroundImageFix"/>
<feColorMatrix in="SourceAlpha" type="matrix" values="0 0 0 0 0 0 0 0 0 0 0 0 0 0 0 0 0 0 127 0" result="hardAlpha"/>
<feOffset dy="4"/>
<feGaussianBlur stdDeviation="2"/>
<feComposite in2="hardAlpha" operator="out"/>
<feColorMatrix type="matrix" values="0 0 0 0 0 0 0 0 0 0 0 0 0 0 0 0 0 0 0.25 0"/>
<feBlend mode="normal" in2="BackgroundImageFix" result="effect1_dropShadow_1697_1452"/>
<feColorMatrix in="SourceAlpha" type="matrix" values="0 0 0 0 0 0 0 0 0 0 0 0 0 0 0 0 0 0 127 0" result="hardAlpha"/>
<feOffset dy="4"/>
<feGaussianBlur stdDeviation="2"/>
<feComposite in2="hardAlpha" operator="out"/>
<feColorMatrix type="matrix" values="0 0 0 0 0 0 0 0 0 0 0 0 0 0 0 0 0 0 0.25 0"/>
<feBlend mode="normal" in2="effect1_dropShadow_1697_1452" result="effect2_dropShadow_1697_1452"/>
<feBlend mode="normal" in="SourceGraphic" in2="effect2_dropShadow_1697_1452" result="shape"/>
</filter>
<filter id="filter3_dd_1697_1452" x="56.0433" y="282.911" width="100.239" height="26.5779" filterUnits="userSpaceOnUse" color-interpolation-filters="sRGB">
<feFlood flood-opacity="0" result="BackgroundImageFix"/>
<feColorMatrix in="SourceAlpha" type="matrix" values="0 0 0 0 0 0 0 0 0 0 0 0 0 0 0 0 0 0 127 0" result="hardAlpha"/>
<feOffset dy="4"/>
<feGaussianBlur stdDeviation="2"/>
<feComposite in2="hardAlpha" operator="out"/>
<feColorMatrix type="matrix" values="0 0 0 0 0 0 0 0 0 0 0 0 0 0 0 0 0 0 0.25 0"/>
<feBlend mode="normal" in2="BackgroundImageFix" result="effect1_dropShadow_1697_1452"/>
<feColorMatrix in="SourceAlpha" type="matrix" values="0 0 0 0 0 0 0 0 0 0 0 0 0 0 0 0 0 0 127 0" result="hardAlpha"/>
<feOffset dy="4"/>
<feGaussianBlur stdDeviation="2"/>
<feComposite in2="hardAlpha" operator="out"/>
<feColorMatrix type="matrix" values="0 0 0 0 0 0 0 0 0 0 0 0 0 0 0 0 0 0 0.25 0"/>
<feBlend mode="normal" in2="effect1_dropShadow_1697_1452" result="effect2_dropShadow_1697_1452"/>
<feBlend mode="normal" in="SourceGraphic" in2="effect2_dropShadow_1697_1452" result="shape"/>
</filter>
<filter id="filter4_dd_1697_1452" x="0" y="176.411" width="48" height="49" filterUnits="userSpaceOnUse" color-interpolation-filters="sRGB">
<feFlood flood-opacity="0" result="BackgroundImageFix"/>
<feColorMatrix in="SourceAlpha" type="matrix" values="0 0 0 0 0 0 0 0 0 0 0 0 0 0 0 0 0 0 127 0" result="hardAlpha"/>
<feOffset dy="4"/>
<feGaussianBlur stdDeviation="2"/>
<feComposite in2="hardAlpha" operator="out"/>
<feColorMatrix type="matrix" values="0 0 0 0 0 0 0 0 0 0 0 0 0 0 0 0 0 0 0.25 0"/>
<feBlend mode="normal" in2="BackgroundImageFix" result="effect1_dropShadow_1697_1452"/>
<feColorMatrix in="SourceAlpha" type="matrix" values="0 0 0 0 0 0 0 0 0 0 0 0 0 0 0 0 0 0 127 0" result="hardAlpha"/>
<feOffset dy="4"/>
<feGaussianBlur stdDeviation="2"/>
<feComposite in2="hardAlpha" operator="out"/>
<feColorMatrix type="matrix" values="0 0 0 0 0 0 0 0 0 0 0 0 0 0 0 0 0 0 0.25 0"/>
<feBlend mode="normal" in2="effect1_dropShadow_1697_1452" result="effect2_dropShadow_1697_1452"/>
<feBlend mode="normal" in="SourceGraphic" in2="effect2_dropShadow_1697_1452" result="shape"/>
</filter>
<filter id="filter5_dd_1697_1452" x="27" y="252.986" width="48" height="49" filterUnits="userSpaceOnUse" color-interpolation-filters="sRGB">
<feFlood flood-opacity="0" result="BackgroundImageFix"/>
<feColorMatrix in="SourceAlpha" type="matrix" values="0 0 0 0 0 0 0 0 0 0 0 0 0 0 0 0 0 0 127 0" result="hardAlpha"/>
<feOffset dy="4"/>
<feGaussianBlur stdDeviation="2"/>
<feComposite in2="hardAlpha" operator="out"/>
<feColorMatrix type="matrix" values="0 0 0 0 0 0 0 0 0 0 0 0 0 0 0 0 0 0 0.25 0"/>
<feBlend mode="normal" in2="BackgroundImageFix" result="effect1_dropShadow_1697_1452"/>
<feColorMatrix in="SourceAlpha" type="matrix" values="0 0 0 0 0 0 0 0 0 0 0 0 0 0 0 0 0 0 127 0" result="hardAlpha"/>
<feOffset dy="4"/>
<feGaussianBlur stdDeviation="2"/>
<feComposite in2="hardAlpha" operator="out"/>
<feColorMatrix type="matrix" values="0 0 0 0 0 0 0 0 0 0 0 0 0 0 0 0 0 0 0.25 0"/>
<feBlend mode="normal" in2="effect1_dropShadow_1697_1452" result="effect2_dropShadow_1697_1452"/>
<feBlend mode="normal" in="SourceGraphic" in2="effect2_dropShadow_1697_1452" result="shape"/>
</filter>
<filter id="filter6_dd_1697_1452" x="62.998" y="253.409" width="48.8335" height="48.5627" filterUnits="userSpaceOnUse" color-interpolation-filters="sRGB">
<feFlood flood-opacity="0" result="BackgroundImageFix"/>
<feColorMatrix in="SourceAlpha" type="matrix" values="0 0 0 0 0 0 0 0 0 0 0 0 0 0 0 0 0 0 127 0" result="hardAlpha"/>
<feOffset dy="4"/>
<feGaussianBlur stdDeviation="2"/>
<feComposite in2="hardAlpha" operator="out"/>
<feColorMatrix type="matrix" values="0 0 0 0 0 0 0 0 0 0 0 0 0 0 0 0 0 0 0.25 0"/>
<feBlend mode="normal" in2="BackgroundImageFix" result="effect1_dropShadow_1697_1452"/>
<feColorMatrix in="SourceAlpha" type="matrix" values="0 0 0 0 0 0 0 0 0 0 0 0 0 0 0 0 0 0 127 0" result="hardAlpha"/>
<feOffset dy="4"/>
<feGaussianBlur stdDeviation="2"/>
<feComposite in2="hardAlpha" operator="out"/>
<feColorMatrix type="matrix" values="0 0 0 0 0 0 0 0 0 0 0 0 0 0 0 0 0 0 0.25 0"/>
<feBlend mode="normal" in2="effect1_dropShadow_1697_1452" result="effect2_dropShadow_1697_1452"/>
<feBlend mode="normal" in="SourceGraphic" in2="effect2_dropShadow_1697_1452" result="shape"/>
</filter>
<filter id="filter7_dd_1697_1452" x="226.412" y="208.671" width="48.2825" height="48.9724" filterUnits="userSpaceOnUse" color-interpolation-filters="sRGB">
<feFlood flood-opacity="0" result="BackgroundImageFix"/>
<feColorMatrix in="SourceAlpha" type="matrix" values="0 0 0 0 0 0 0 0 0 0 0 0 0 0 0 0 0 0 127 0" result="hardAlpha"/>
<feOffset dy="4"/>
<feGaussianBlur stdDeviation="2"/>
<feComposite in2="hardAlpha" operator="out"/>
<feColorMatrix type="matrix" values="0 0 0 0 0 0 0 0 0 0 0 0 0 0 0 0 0 0 0.25 0"/>
<feBlend mode="normal" in2="BackgroundImageFix" result="effect1_dropShadow_1697_1452"/>
<feColorMatrix in="SourceAlpha" type="matrix" values="0 0 0 0 0 0 0 0 0 0 0 0 0 0 0 0 0 0 127 0" result="hardAlpha"/>
<feOffset dy="4"/>
<feGaussianBlur stdDeviation="2"/>
<feComposite in2="hardAlpha" operator="out"/>
<feColorMatrix type="matrix" values="0 0 0 0 0 0 0 0 0 0 0 0 0 0 0 0 0 0 0.25 0"/>
<feBlend mode="normal" in2="effect1_dropShadow_1697_1452" result="effect2_dropShadow_1697_1452"/>
<feBlend mode="normal" in="SourceGraphic" in2="effect2_dropShadow_1697_1452" result="shape"/>
</filter>
<filter id="filter8_dd_1697_1452" x="102.869" y="253.099" width="48.8221" height="48.5774" filterUnits="userSpaceOnUse" color-interpolation-filters="sRGB">
<feFlood flood-opacity="0" result="BackgroundImageFix"/>
<feColorMatrix in="SourceAlpha" type="matrix" values="0 0 0 0 0 0 0 0 0 0 0 0 0 0 0 0 0 0 127 0" result="hardAlpha"/>
<feOffset dy="4"/>
<feGaussianBlur stdDeviation="2"/>
<feComposite in2="hardAlpha" operator="out"/>
<feColorMatrix type="matrix" values="0 0 0 0 0 0 0 0 0 0 0 0 0 0 0 0 0 0 0.25 0"/>
<feBlend mode="normal" in2="BackgroundImageFix" result="effect1_dropShadow_1697_1452"/>
<feColorMatrix in="SourceAlpha" type="matrix" values="0 0 0 0 0 0 0 0 0 0 0 0 0 0 0 0 0 0 127 0" result="hardAlpha"/>
<feOffset dy="4"/>
<feGaussianBlur stdDeviation="2"/>
<feComposite in2="hardAlpha" operator="out"/>
<feColorMatrix type="matrix" values="0 0 0 0 0 0 0 0 0 0 0 0 0 0 0 0 0 0 0.25 0"/>
<feBlend mode="normal" in2="effect1_dropShadow_1697_1452" result="effect2_dropShadow_1697_1452"/>
<feBlend mode="normal" in="SourceGraphic" in2="effect2_dropShadow_1697_1452" result="shape"/>
</filter>
<filter id="filter9_dd_1697_1452" x="82.7065" y="218.266" width="48.1545" height="48.9941" filterUnits="userSpaceOnUse" color-interpolation-filters="sRGB">
<feFlood flood-opacity="0" result="BackgroundImageFix"/>
<feColorMatrix in="SourceAlpha" type="matrix" values="0 0 0 0 0 0 0 0 0 0 0 0 0 0 0 0 0 0 127 0" result="hardAlpha"/>
<feOffset dy="4"/>
<feGaussianBlur stdDeviation="2"/>
<feComposite in2="hardAlpha" operator="out"/>
<feColorMatrix type="matrix" values="0 0 0 0 0 0 0 0 0 0 0 0 0 0 0 0 0 0 0.25 0"/>
<feBlend mode="normal" in2="BackgroundImageFix" result="effect1_dropShadow_1697_1452"/>
<feColorMatrix in="SourceAlpha" type="matrix" values="0 0 0 0 0 0 0 0 0 0 0 0 0 0 0 0 0 0 127 0" result="hardAlpha"/>
<feOffset dy="4"/>
<feGaussianBlur stdDeviation="2"/>
<feComposite in2="hardAlpha" operator="out"/>
<feColorMatrix type="matrix" values="0 0 0 0 0 0 0 0 0 0 0 0 0 0 0 0 0 0 0.25 0"/>
<feBlend mode="normal" in2="effect1_dropShadow_1697_1452" result="effect2_dropShadow_1697_1452"/>
<feBlend mode="normal" in="SourceGraphic" in2="effect2_dropShadow_1697_1452" result="shape"/>
</filter>
<filter id="filter10_dd_1697_1452" x="132" y="136.411" width="48" height="49" filterUnits="userSpaceOnUse" color-interpolation-filters="sRGB">
<feFlood flood-opacity="0" result="BackgroundImageFix"/>
<feColorMatrix in="SourceAlpha" type="matrix" values="0 0 0 0 0 0 0 0 0 0 0 0 0 0 0 0 0 0 127 0" result="hardAlpha"/>
<feOffset dy="4"/>
<feGaussianBlur stdDeviation="2"/>
<feComposite in2="hardAlpha" operator="out"/>
<feColorMatrix type="matrix" values="0 0 0 0 0 0 0 0 0 0 0 0 0 0 0 0 0 0 0.25 0"/>
<feBlend mode="normal" in2="BackgroundImageFix" result="effect1_dropShadow_1697_1452"/>
<feColorMatrix in="SourceAlpha" type="matrix" values="0 0 0 0 0 0 0 0 0 0 0 0 0 0 0 0 0 0 127 0" result="hardAlpha"/>
<feOffset dy="4"/>
<feGaussianBlur stdDeviation="2"/>
<feComposite in2="hardAlpha" operator="out"/>
<feColorMatrix type="matrix" values="0 0 0 0 0 0 0 0 0 0 0 0 0 0 0 0 0 0 0.25 0"/>
<feBlend mode="normal" in2="effect1_dropShadow_1697_1452" result="effect2_dropShadow_1697_1452"/>
<feBlend mode="normal" in="SourceGraphic" in2="effect2_dropShadow_1697_1452" result="shape"/>
</filter>
<filter id="filter11_dd_1697_1452" x="76.995" y="81.4058" width="48.4184" height="48.9226" filterUnits="userSpaceOnUse" color-interpolation-filters="sRGB">
<feFlood flood-opacity="0" result="BackgroundImageFix"/>
<feColorMatrix in="SourceAlpha" type="matrix" values="0 0 0 0 0 0 0 0 0 0 0 0 0 0 0 0 0 0 127 0" result="hardAlpha"/>
<feOffset dy="4"/>
<feGaussianBlur stdDeviation="2"/>
<feComposite in2="hardAlpha" operator="out"/>
<feColorMatrix type="matrix" values="0 0 0 0 0 0 0 0 0 0 0 0 0 0 0 0 0 0 0.25 0"/>
<feBlend mode="normal" in2="BackgroundImageFix" result="effect1_dropShadow_1697_1452"/>
<feColorMatrix in="SourceAlpha" type="matrix" values="0 0 0 0 0 0 0 0 0 0 0 0 0 0 0 0 0 0 127 0" result="hardAlpha"/>
<feOffset dy="4"/>
<feGaussianBlur stdDeviation="2"/>
<feComposite in2="hardAlpha" operator="out"/>
<feColorMatrix type="matrix" values="0 0 0 0 0 0 0 0 0 0 0 0 0 0 0 0 0 0 0.25 0"/>
<feBlend mode="normal" in2="effect1_dropShadow_1697_1452" result="effect2_dropShadow_1697_1452"/>
<feBlend mode="normal" in="SourceGraphic" in2="effect2_dropShadow_1697_1452" result="shape"/>
</filter>
<filter id="filter12_dd_1697_1452" x="117" y="267.986" width="17" height="18" filterUnits="userSpaceOnUse" color-interpolation-filters="sRGB">
<feFlood flood-opacity="0" result="BackgroundImageFix"/>
<feColorMatrix in="SourceAlpha" type="matrix" values="0 0 0 0 0 0 0 0 0 0 0 0 0 0 0 0 0 0 127 0" result="hardAlpha"/>
<feOffset dy="4"/>
<feGaussianBlur stdDeviation="2"/>
<feComposite in2="hardAlpha" operator="out"/>
<feColorMatrix type="matrix" values="0 0 0 0 0 0 0 0 0 0 0 0 0 0 0 0 0 0 0.25 0"/>
<feBlend mode="normal" in2="BackgroundImageFix" result="effect1_dropShadow_1697_1452"/>
<feColorMatrix in="SourceAlpha" type="matrix" values="0 0 0 0 0 0 0 0 0 0 0 0 0 0 0 0 0 0 127 0" result="hardAlpha"/>
<feOffset dy="4"/>
<feGaussianBlur stdDeviation="2"/>
<feComposite in2="hardAlpha" operator="out"/>
<feColorMatrix type="matrix" values="0 0 0 0 0 0 0 0 0 0 0 0 0 0 0 0 0 0 0.25 0"/>
<feBlend mode="normal" in2="effect1_dropShadow_1697_1452" result="effect2_dropShadow_1697_1452"/>
<feBlend mode="normal" in="SourceGraphic" in2="effect2_dropShadow_1697_1452" result="shape"/>
</filter>
<filter id="filter13_dd_1697_1452" x="160.349" y="252.508" width="48.1514" height="48.8052" filterUnits="userSpaceOnUse" color-interpolation-filters="sRGB">
<feFlood flood-opacity="0" result="BackgroundImageFix"/>
<feColorMatrix in="SourceAlpha" type="matrix" values="0 0 0 0 0 0 0 0 0 0 0 0 0 0 0 0 0 0 127 0" result="hardAlpha"/>
<feOffset dy="4"/>
<feGaussianBlur stdDeviation="2"/>
<feComposite in2="hardAlpha" operator="out"/>
<feColorMatrix type="matrix" values="0 0 0 0 0 0 0 0 0 0 0 0 0 0 0 0 0 0 0.25 0"/>
<feBlend mode="normal" in2="BackgroundImageFix" result="effect1_dropShadow_1697_1452"/>
<feColorMatrix in="SourceAlpha" type="matrix" values="0 0 0 0 0 0 0 0 0 0 0 0 0 0 0 0 0 0 127 0" result="hardAlpha"/>
<feOffset dy="4"/>
<feGaussianBlur stdDeviation="2"/>
<feComposite in2="hardAlpha" operator="out"/>
<feColorMatrix type="matrix" values="0 0 0 0 0 0 0 0 0 0 0 0 0 0 0 0 0 0 0.25 0"/>
<feBlend mode="normal" in2="effect1_dropShadow_1697_1452" result="effect2_dropShadow_1697_1452"/>
<feBlend mode="normal" in="SourceGraphic" in2="effect2_dropShadow_1697_1452" result="shape"/>
</filter>
</defs>
</svg>
